<?xml version="1.0" encoding="utf-8"?>
<!-- Generator: Adobe Illustrator 19.0.1, SVG Export Plug-In . SVG Version: 6.00 Build 0)  -->
<svg version="1.1" id="Layer_1" xmlns="http://www.w3.org/2000/svg" xmlns:xlink="http://www.w3.org/1999/xlink" x="0px" y="0px"
	 viewBox="0 0 92 40" style="enable-background:new 0 0 92 40;" xml:space="preserve">
<style type="text/css">
	.st0{fill:#FFFFFF;}
</style>
<g>
	<path class="st0" d="M11.5,13c0,0.6-1,2.1-1.5,2.1c-0.1,0-0.3-0.1-0.5-0.1c-0.4-0.2-1.1-0.5-2.2-0.5c-2.1,0-2.4,1-2.4,1.6
		c0,1.1,1.1,1.6,2.3,2.2c1.8,0.9,3.9,1.9,3.9,5c0,3.9-3.3,5.2-6,5.2c-1.6,0-4.7-0.5-4.7-1.9c0-2.4,0.4-2.7,0.6-2.7
		c0.2,0,0.4,0.1,0.7,0.4c0.6,0.4,1.6,1,3,1c1.1,0,2.5-0.4,2.5-1.8c0-1.3-1.2-2-2.5-2.7c-1.7-0.9-3.6-1.9-3.6-4.7
		c0-3.5,3.2-4.9,6.3-4.9C9.9,11.4,11.5,12.3,11.5,13z"/>
	<path class="st0" d="M17.8,11.1l-0.6,6.2c0.8-0.9,2.2-1.6,3.5-1.6c2.1,0,3.2,1,3.2,3c0,0.5-0.6,5.9-0.6,6.3c0,0.6,0.2,0.8,0.7,0.8
		c0.3,0,0.6-0.1,0.7-0.1c0.1,0,0.2,0,0.2,0.3c0,0,0,0.6-0.2,1.4c-0.1,0.9-1.3,1.2-2.1,1.2c-1.9,0-2.9-0.9-2.9-3
		c0-0.6,0.6-5.4,0.6-5.8c0-0.8-0.4-1.2-1.3-1.2c-0.9,0-1.6,0.7-2.1,1.4L16,27.7c0,0.5-0.6,0.8-1.5,0.8h-0.7c-1,0-1.4-0.4-1.4-0.7
		l1.8-16.6c0-0.5,0.6-0.8,1.5-0.8h0.7C17.4,10.3,17.8,10.7,17.8,11.1z"/>
	<path class="st0" d="M38.4,25.9c0,0,0,0.6-0.2,1.4c-0.1,0.9-1.3,1.2-2.1,1.2c-1.9,0-2.9-0.9-2.9-3c0-0.6,0.6-5.4,0.6-5.8
		c0-0.8-0.4-1.2-1.3-1.2s-1.7,0.8-2.1,1.5c-0.3,3.2-0.8,7.6-0.8,7.6c0,0.5-0.6,0.8-1.5,0.8h-0.7c-1,0-1.4-0.4-1.4-0.7
		C27,18.8,27,19,27,18.1c0-0.6,0-1,0-1.3c0-0.5,1.2-0.9,2.8-0.9c0.6,0,0.8,0.8,0.8,1.6c0.8-1,2.3-1.9,3.7-1.9c2.1,0,3.2,1,3.2,3
		c0,0.5-0.6,5.9-0.6,6.3c0,0.6,0.2,0.8,0.7,0.8c0.3,0,0.6-0.1,0.7-0.1C38.4,25.6,38.4,25.7,38.4,25.9z"/>
	<path class="st0" d="M51.7,25.9c0,0,0,0.6-0.2,1.4c-0.1,0.9-1.3,1.2-2.1,1.2c-1.5,0-2.4-0.5-2.8-1.8c-0.7,1.1-1.9,1.8-3.3,1.8
		c-2.3,0-3.9-1.8-3.9-5.2c0-4.6,2.2-7.7,5.3-7.7c1.4,0,2.4,0.8,2.9,1.3c0.3-0.9,0.3-1.1,1.6-1.1h0.3c1,0,1.4,0.2,1.4,0.6
		c0,0.1-0.9,8.2-0.9,8.6c0,0.6,0.2,0.8,0.7,0.8c0.3,0,0.6-0.1,0.7-0.1C51.6,25.6,51.7,25.7,51.7,25.9z M47.2,19.1
		c-0.4-0.4-0.9-0.6-1.6-0.6c-1.6,0-2.5,1.6-2.5,4.7c0,1.7,0.5,2.5,1.6,2.5c0.8,0,1.4-0.6,1.9-1.4c0.1-1.1,0.3-3.4,0.4-4
		C47,20.1,47.1,19.8,47.2,19.1z"/>
	<path class="st0" d="M64.6,20.9c0,4.6-2.3,7.7-5.7,7.7c-1.1,0-2-0.5-2.6-1l-0.5,4.9c0,0.5-0.6,0.8-1.5,0.8h-0.7
		c-1,0-1.4-0.4-1.4-0.7l1.3-12.8c0.1-0.7,0.1-1.3,0.1-1.7c0-0.6,0-1,0-1.3c0-0.5,1.2-0.9,2.8-0.9c0.6,0,0.8,0.7,0.8,1.4
		c0.7-1,1.8-1.7,3.1-1.7C62.9,15.7,64.6,17.5,64.6,20.9z M61,21.1c0-1.7-0.7-2.5-2-2.5c-0.8,0-1.4,0.7-1.9,1.5
		c-0.1,1.4-0.3,3.3-0.5,5.2c0.4,0.3,0.9,0.6,1.5,0.6C59.9,25.8,61,24.2,61,21.1z"/>
	<path class="st0" d="M78.3,20.9c0,4.6-2.3,7.7-5.7,7.7c-1.1,0-2-0.5-2.6-1l-0.5,4.9c0,0.5-0.6,0.8-1.5,0.8h-0.7
		c-1,0-1.4-0.4-1.4-0.7l1.3-12.8c0.1-0.7,0.1-1.3,0.1-1.7c0-0.6,0-1,0-1.3c0-0.5,1.2-0.9,2.8-0.9c0.6,0,0.8,0.7,0.8,1.4
		c0.7-1,1.8-1.7,3.1-1.7C76.6,15.7,78.3,17.5,78.3,20.9z M74.7,21.1c0-1.7-0.7-2.5-2-2.5c-0.8,0-1.4,0.7-1.9,1.5
		c-0.1,1.4-0.3,3.3-0.5,5.2c0.4,0.3,0.9,0.6,1.5,0.6C73.6,25.8,74.7,24.2,74.7,21.1z"/>
	<path class="st0" d="M91.4,16.3c0,0.1,0,0.3-0.1,0.5L84,32.8c-0.2,0.4-0.7,0.5-1.4,0.5h-0.4c-1,0-1.4-0.2-1.4-0.5
		c0-0.1,0-0.3,0.1-0.5l1.9-4c-2.8-11.8-2.8-11.9-2.8-12c0-0.4,0.4-0.6,1.5-0.6h0.8c0.6,0,1.2,0.1,1.3,0.5l0.9,4.4
		c0.1,0.6,0.3,1.9,0.4,2.9h0.1c0.3-1,0.7-2.4,1-2.9l1.9-4.4c0.2-0.4,0.7-0.5,1.4-0.5H90C90.9,15.8,91.4,16,91.4,16.3z"/>
</g>
</svg>
