<?xml version="1.0" encoding="utf-8"?>
<!-- Generator: Adobe Illustrator 19.0.1, SVG Export Plug-In . SVG Version: 6.00 Build 0)  -->
<svg version="1.1" xmlns="http://www.w3.org/2000/svg" xmlns:xlink="http://www.w3.org/1999/xlink" x="0px" y="0px"
	 viewBox="0 0 2304 96" style="enable-background:new 0 0 2304 96;" xml:space="preserve">
<style type="text/css">
	.st0{fill:#DF3A62;}
</style>
<g id="guides">
</g>
<g id="Layer_26">
</g>
<g id="_x34_6">
</g>
<g id="_x34_5">
	<g>
		<g>
			<path class="st0" d="M174.1,37.1c-1.3-3.6-3.2-6.8-5.6-9.7L174.1,37.1z"/>
		</g>
		<g>
			<path class="st0" d="M174.1,58.9l-5.6,9.7C170.9,65.7,172.8,62.4,174.1,58.9z"/>
		</g>
		<g>
			<path class="st0" d="M149.6,16.5c-1.8-0.3-3.7-0.5-5.6-0.5c-1.9,0-3.8,0.2-5.6,0.5H149.6z"/>
		</g>
		<g>
			<path class="st0" d="M113.9,58.9c1.3,3.6,3.2,6.8,5.6,9.7L113.9,58.9z"/>
		</g>
		<g>
			<path class="st0" d="M138.4,79.5c1.8,0.3,3.7,0.5,5.6,0.5c1.9,0,3.8-0.2,5.6-0.5H138.4z"/>
		</g>
		<g>
			<path class="st0" d="M113.9,37.1l5.6-9.7C117.1,30.3,115.2,33.6,113.9,37.1z"/>
		</g>
	</g>
</g>
<g id="_x34_3">
	<g>
		<g>
			<path class="st0" d="M248.1,18l-0.6-1.1c-2.4-0.6-4.9-0.9-7.4-0.9c-3.9,0-7.7,0.7-11.1,2H248.1z"/>
		</g>
		<g>
			<path class="st0" d="M208.5,42.6l9.6-16.6h-1.3C212.5,30.5,209.5,36.2,208.5,42.6z"/>
		</g>
		<g>
			<path class="st0" d="M231.9,78l0.6,1.1c2.4,0.6,4.9,0.9,7.4,0.9c3.9,0,7.7-0.7,11.1-2H231.9z"/>
		</g>
		<g>
			<path class="st0" d="M210,56l-0.6,1.1c1.8,6.1,5.4,11.5,10.2,15.5L210,56z"/>
		</g>
		<g>
			<path class="st0" d="M261.9,70h1.3c4.3-4.5,7.3-10.2,8.3-16.6L261.9,70z"/>
		</g>
		<g>
			<path class="st0" d="M270,40l0.6-1.1c-1.8-6.1-5.4-11.5-10.2-15.5L270,40z"/>
		</g>
	</g>
</g>
<g id="_x34_1">
	<g>
		<g>
			<path class="st0" d="M343.5,19l-1.4-2.4c-2-0.4-4-0.6-6.1-0.6c-4.8,0-9.4,1.1-13.5,3H343.5z"/>
		</g>
		<g>
			<path class="st0" d="M304.1,45.2L314.6,27h-2.8C307.6,32,304.7,38.3,304.1,45.2z"/>
		</g>
		<g>
			<path class="st0" d="M328.5,77l1.4,2.4c2,0.4,4,0.6,6.1,0.6c4.8,0,9.4-1.1,13.5-3H328.5z"/>
		</g>
		<g>
			<path class="st0" d="M307.1,56l-1.4,2.4c2.2,6.4,6.4,11.9,11.9,15.8L307.1,56z"/>
		</g>
		<g>
			<path class="st0" d="M357.4,69h2.8c4.3-5,7.2-11.3,7.8-18.2L357.4,69z"/>
		</g>
		<g>
			<path class="st0" d="M364.9,40l1.4-2.4c-2.2-6.4-6.4-11.9-11.9-15.8L364.9,40z"/>
		</g>
	</g>
</g>
<g id="_x33_9">
	<g>
		<g>
			<path class="st0" d="M425.1,76l2.1,3.6c1.6,0.2,3.2,0.4,4.8,0.4c5.6,0,10.9-1.5,15.5-4H425.1z"/>
		</g>
		<g>
			<path class="st0" d="M438.9,20l-2.1-3.6c-1.6-0.2-3.2-0.4-4.8-0.4c-5.6,0-10.9,1.5-15.5,4H438.9z"/>
		</g>
		<g>
			<path class="st0" d="M407,28c-4.3,5.3-6.9,12.1-7,19.4L411.2,28H407z"/>
		</g>
		<g>
			<path class="st0" d="M459.7,40l2.1-3.6c-2.6-6.6-7.3-12.1-13.3-15.8L459.7,40z"/>
		</g>
		<g>
			<path class="st0" d="M404.3,56l-2.1,3.6c2.6,6.6,7.3,12.1,13.3,15.8L404.3,56z"/>
		</g>
		<g>
			<path class="st0" d="M452.8,68h4.2c4.3-5.3,6.9-12.1,7-19.4L452.8,68z"/>
		</g>
	</g>
</g>
<g id="_x33_7">
	<g>
		<g>
			<path class="st0" d="M501.4,56l-2.8,4.8c2.9,6.7,8.1,12.2,14.5,15.6L501.4,56z"/>
		</g>
		<g>
			<path class="st0" d="M502.3,29c-3.9,5.3-6.3,11.9-6.3,19c0,0.5,0,0.9,0,1.4L507.8,29H502.3z"/>
		</g>
		<g>
			<path class="st0" d="M521.6,75l2.8,4.8c1.2,0.1,2.4,0.2,3.6,0.2c6.3,0,12.2-1.8,17.1-5H521.6z"/>
		</g>
		<g>
			<path class="st0" d="M534.4,21l-2.8-4.8c-1.2-0.1-2.4-0.2-3.6-0.2c-6.3,0-12.2,1.8-17.1,5H534.4z"/>
		</g>
		<g>
			<path class="st0" d="M554.6,40l2.8-4.8c-2.9-6.7-8.1-12.2-14.5-15.6L554.6,40z"/>
		</g>
		<g>
			<path class="st0" d="M560,46.6L548.2,67h5.5c3.9-5.3,6.3-11.9,6.3-19C560,47.5,560,47.1,560,46.6z"/>
		</g>
	</g>
</g>
<g id="_x33_5">
	<g>
		<g>
			<path class="st0" d="M629.8,22l-3.4-5.9c-0.8-0.1-1.6-0.1-2.4-0.1c-6.9,0-13.4,2.2-18.6,6H629.8z"/>
		</g>
		<g>
			<path class="st0" d="M597.6,30c-3.5,5.1-5.6,11.3-5.6,18c0,1.1,0.1,2.1,0.2,3.2L604.4,30H597.6z"/>
		</g>
		<g>
			<path class="st0" d="M618.2,74l3.4,5.9c0.8,0.1,1.6,0.1,2.4,0.1c6.9,0,13.4-2.2,18.6-6H618.2z"/>
		</g>
		<g>
			<path class="st0" d="M598.6,56l-3.4,5.9c3.3,6.7,8.8,12.1,15.6,15.2L598.6,56z"/>
		</g>
		<g>
			<path class="st0" d="M649.4,40l3.4-5.9c-3.3-6.7-8.8-12.1-15.6-15.2L649.4,40z"/>
		</g>
		<g>
			<path class="st0" d="M655.8,44.8L643.6,66h6.8c3.5-5.1,5.6-11.3,5.6-18C656,46.9,655.9,45.9,655.8,44.8z"/>
		</g>
	</g>
</g>
<g id="_x33_3">
	<g>
		<g>
			<path class="st0" d="M692.9,31c-3.1,4.9-4.9,10.8-4.9,17c0,1.6,0.1,3.2,0.4,4.8L700.9,31H692.9z"/>
		</g>
		<g>
			<path class="st0" d="M714.8,73l4,7c0.4,0,0.8,0,1.2,0c7.5,0,14.5-2.6,19.9-7H714.8z"/>
		</g>
		<g>
			<path class="st0" d="M721.2,16c-0.4,0-0.8,0-1.2,0c-7.5,0-14.5,2.6-19.9,7h25.1L721.2,16z"/>
		</g>
		<g>
			<path class="st0" d="M695.8,56l-4,7c3.6,6.7,9.5,12,16.6,14.8L695.8,56z"/>
		</g>
		<g>
			<path class="st0" d="M744.2,40l4-7c-3.6-6.7-9.5-12-16.6-14.8L744.2,40z"/>
		</g>
		<g>
			<path class="st0" d="M751.6,43.2L739.1,65h8c3.1-4.9,4.9-10.8,4.9-17C752,46.4,751.9,44.8,751.6,43.2z"/>
		</g>
	</g>
</g>
<g id="_x33_1">
	<g>
		<g>
			<path class="st0" d="M792.9,56l-4.6,8c3.9,6.7,10.1,11.8,17.5,14.3L792.9,56z"/>
		</g>
		<g>
			<path class="st0" d="M811.4,72l4.6,8c8.1,0,15.5-3,21.1-8H811.4z"/>
		</g>
		<g>
			<path class="st0" d="M788.3,32c-2.7,4.7-4.3,10.2-4.3,16c0,2.2,0.2,4.3,0.6,6.3L797.5,32H788.3z"/>
		</g>
		<g>
			<path class="st0" d="M816,16L816,16c-8.1,0-15.5,3-21.1,8h25.8L816,16z"/>
		</g>
		<g>
			<path class="st0" d="M839.1,40l4.6-8c-3.9-6.7-10.1-11.8-17.5-14.3L839.1,40z"/>
		</g>
		<g>
			<path class="st0" d="M847.4,41.7L834.5,64h9.2c2.7-4.7,4.3-10.2,4.3-16C848,45.8,847.8,43.7,847.4,41.7z"/>
		</g>
	</g>
</g>
<g id="_x32_9">
	<g>
		<g>
			<path class="st0" d="M910.9,16c-8.2,0.3-15.6,3.7-21.1,9H916L910.9,16z"/>
		</g>
		<g>
			<path class="st0" d="M883.7,33c-2.4,4.5-3.7,9.6-3.7,15c0,2.7,0.3,5.3,1,7.8L894.1,33H883.7z"/>
		</g>
		<g>
			<path class="st0" d="M908,71l5.2,9c8.2-0.3,15.6-3.7,21.1-9H908z"/>
		</g>
		<g>
			<path class="st0" d="M890.1,56l-5.2,9c4.2,6.6,10.6,11.6,18.3,13.8L890.1,56z"/>
		</g>
		<g>
			<path class="st0" d="M943,40.2L929.9,63h10.4c2.4-4.5,3.7-9.6,3.7-15C944,45.3,943.7,42.7,943,40.2z"/>
		</g>
		<g>
			<path class="st0" d="M933.9,40l5.2-9c-4.2-6.6-10.6-11.6-18.3-13.8L933.9,40z"/>
		</g>
	</g>
</g>
<g id="_x32_7">
	<g>
		<g>
			<path class="st0" d="M979.2,34c-2.1,4.2-3.2,9-3.2,14c0,3.2,0.5,6.2,1.3,9.1L990.7,34H979.2z"/>
		</g>
		<g>
			<path class="st0" d="M1005.7,16.1c-8.2,0.6-15.6,4.3-20.9,9.9h26.7L1005.7,16.1z"/>
		</g>
		<g>
			<path class="st0" d="M1004.5,70l5.7,9.9c8.2-0.6,15.6-4.3,20.9-9.9H1004.5z"/>
		</g>
		<g>
			<path class="st0" d="M987.2,56l-5.7,9.9c4.4,6.5,11.2,11.3,19.1,13.2L987.2,56z"/>
		</g>
		<g>
			<path class="st0" d="M1028.8,40l5.7-9.9c-4.4-6.5-11.2-11.3-19.1-13.2L1028.8,40z"/>
		</g>
		<g>
			<path class="st0" d="M1038.7,38.9L1025.3,62h11.4c2.1-4.2,3.2-9,3.2-14C1040,44.8,1039.5,41.8,1038.7,38.9z"/>
		</g>
	</g>
</g>
<g id="_x32_5">
	<g>
		<g>
			<path class="st0" d="M1100.6,16.2c-8.3,0.9-15.6,4.9-20.8,10.8h27L1100.6,16.2z"/>
		</g>
		<g>
			<path class="st0" d="M1074.8,35c-1.8,4-2.8,8.4-2.8,13c0,3.6,0.6,7.1,1.7,10.4l13.5-23.4H1074.8z"/>
		</g>
		<g>
			<path class="st0" d="M1101.1,69l6.2,10.8c8.3-0.9,15.6-4.9,20.8-10.8H1101.1z"/>
		</g>
		<g>
			<path class="st0" d="M1134.3,37.6L1120.7,61h12.5c1.8-4,2.8-8.4,2.8-13C1136,44.4,1135.4,40.9,1134.3,37.6z"/>
		</g>
		<g>
			<path class="st0" d="M1123.6,40l6.2-10.8c-4.7-6.4-11.7-11-19.8-12.6L1123.6,40z"/>
		</g>
		<g>
			<path class="st0" d="M1084.4,56l-6.2,10.8c4.7,6.4,11.7,11,19.8,12.6L1084.4,56z"/>
		</g>
	</g>
</g>
<g id="_x32_3">
	<g>
		<g>
			<path class="st0" d="M1195.6,16.3c-8.3,1.2-15.5,5.5-20.5,11.7h27.3L1195.6,16.3z"/>
		</g>
		<g>
			<path class="st0" d="M1170.3,36c-1.5,3.7-2.3,7.8-2.3,12c0,4.1,0.8,8,2.2,11.6l13.6-23.6H1170.3z"/>
		</g>
		<g>
			<path class="st0" d="M1197.7,68l6.7,11.7c8.3-1.2,15.5-5.5,20.5-11.7H1197.7z"/>
		</g>
		<g>
			<path class="st0" d="M1181.5,56l-6.7,11.7c4.9,6.3,12.1,10.7,20.4,12L1181.5,56z"/>
		</g>
		<g>
			<path class="st0" d="M1229.8,36.4L1216.2,60h13.5c1.5-3.7,2.3-7.8,2.3-12C1232,43.9,1231.2,40,1229.8,36.4z"/>
		</g>
		<g>
			<path class="st0" d="M1218.5,40l6.7-11.7c-4.9-6.3-12.1-10.7-20.4-12L1218.5,40z"/>
		</g>
	</g>
</g>
<g id="_x32_1">
	<g>
		<g>
			<path class="st0" d="M1265.9,37c-1.3,3.4-1.9,7.1-1.9,11c0,4.5,1,8.9,2.7,12.8l13.7-23.8H1265.9z"/>
		</g>
		<g>
			<path class="st0" d="M1294.3,67l7.2,12.5c8.3-1.4,15.4-6,20.2-12.5H1294.3z"/>
		</g>
		<g>
			<path class="st0" d="M1290.5,16.5c-8.3,1.4-15.4,6-20.2,12.5h27.5L1290.5,16.5z"/>
		</g>
		<g>
			<path class="st0" d="M1325.3,35.2L1311.6,59h14.5c1.3-3.4,1.9-7.1,1.9-11C1328,43.5,1327,39.1,1325.3,35.2z"/>
		</g>
		<g>
			<path class="st0" d="M1313.3,40l7.2-12.5c-5.2-6.2-12.6-10.3-21-11.3L1313.3,40z"/>
		</g>
		<g>
			<path class="st0" d="M1278.7,56l-7.2,12.5c5.2,6.2,12.6,10.3,21,11.3L1278.7,56z"/>
		</g>
	</g>
</g>
<g id="_x31_9">
	<g>
		<g>
			<path class="st0" d="M1361.6,38c-1,3.1-1.6,6.5-1.6,10c0,5,1.1,9.7,3.2,13.9L1377,38H1361.6z"/>
		</g>
		<g>
			<path class="st0" d="M1385.5,16.7c-8.2,1.7-15.3,6.6-19.9,13.3h27.6L1385.5,16.7z"/>
		</g>
		<g>
			<path class="st0" d="M1390.8,66l7.7,13.3c8.2-1.7,15.3-6.6,19.9-13.3H1390.8z"/>
		</g>
		<g>
			<path class="st0" d="M1375.8,56l-7.7,13.3c5.4,6,13,10,21.5,10.6L1375.8,56z"/>
		</g>
		<g>
			<path class="st0" d="M1408.2,40l7.7-13.3c-5.4-6-13-10-21.5-10.6L1408.2,40z"/>
		</g>
		<g>
			<path class="st0" d="M1420.8,34.1L1407,58h15.4c1-3.1,1.6-6.5,1.6-10C1424,43,1422.9,38.3,1420.8,34.1z"/>
		</g>
	</g>
</g>
<g id="_x31_7">
	<g>
		<g>
			<g>
				<path class="st0" d="M1457.3,39c-0.8,2.9-1.3,5.9-1.3,9c0,5.4,1.4,10.5,3.7,15l13.8-24H1457.3z"/>
			</g>
		</g>
		<g>
			<g>
				<path class="st0" d="M1487.4,65l8.1,14.1c8.2-2,15.2-7.1,19.5-14.1H1487.4z"/>
			</g>
		</g>
		<g>
			<g>
				<path class="st0" d="M1480.4,16.9c-8.2,2-15.2,7.1-19.5,14.1h27.7L1480.4,16.9z"/>
			</g>
		</g>
		<g>
			<g>
				<path class="st0" d="M1503,40l8.1-14.1c-5.6-5.8-13.3-9.6-22-9.9L1503,40z"/>
			</g>
		</g>
		<g>
			<g>
				<path class="st0" d="M1516.3,33l-13.8,24h16.3c0.8-2.9,1.3-5.9,1.3-9C1520,42.6,1518.6,37.5,1516.3,33z"/>
			</g>
		</g>
		<g>
			<g>
				<path class="st0" d="M1473,56l-8.1,14.1c5.6,5.8,13.3,9.6,22,9.9L1473,56z"/>
			</g>
		</g>
	</g>
</g>
<g id="_x31_5">
	<g>
		<g>
			<path class="st0" d="M1553,40c-0.7,2.6-1,5.2-1,8c0,5.8,1.6,11.3,4.3,16l13.8-24H1553z"/>
		</g>
		<g>
			<path class="st0" d="M1575.4,17.2c-8.1,2.3-15,7.7-19.1,14.8h27.7L1575.4,17.2z"/>
		</g>
		<g>
			<path class="st0" d="M1584,64l8.6,14.8c8.1-2.3,15-7.7,19.1-14.8H1584z"/>
		</g>
		<g>
			<path class="st0" d="M1611.7,32l-13.8,24h17.1c0.7-2.6,1-5.2,1-8C1616,42.2,1614.4,36.7,1611.7,32z"/>
		</g>
		<g>
			<path class="st0" d="M1570.1,56l-8.6,14.8c5.8,5.7,13.7,9.2,22.4,9.2l0,0L1570.1,56z"/>
		</g>
		<g>
			<path class="st0" d="M1597.9,40l8.6-14.8c-5.8-5.7-13.7-9.2-22.4-9.2l0,0L1597.9,40z"/>
		</g>
	</g>
</g>
<g id="_x31_3">
	<g>
		<g>
			<path class="st0" d="M1648.8,41c-0.5,2.3-0.8,4.6-0.8,7c0,6.2,1.8,12,4.9,17l13.8-24H1648.8z"/>
		</g>
		<g>
			<path class="st0" d="M1670.4,17.5c-8.1,2.5-14.8,8.2-18.7,15.5h27.7L1670.4,17.5z"/>
		</g>
		<g>
			<path class="st0" d="M1680.6,63l9,15.5c8.1-2.5,14.8-8.2,18.7-15.5H1680.6z"/>
		</g>
		<g>
			<path class="st0" d="M1692.7,40l9-15.5c-5.7-5.3-13.3-8.5-21.7-8.5c-0.4,0-0.8,0-1.1,0L1692.7,40z"/>
		</g>
		<g>
			<path class="st0" d="M1667.3,56l-9,15.5c5.7,5.3,13.3,8.5,21.7,8.5c0.4,0,0.8,0,1.1,0L1667.3,56z"/>
		</g>
		<g>
			<path class="st0" d="M1707.1,31l-13.8,24h17.9c0.5-2.3,0.8-4.6,0.8-7C1712,41.8,1710.2,36,1707.1,31z"/>
		</g>
	</g>
</g>
<g id="_x31_1">
	<g>
		<g>
			<path class="st0" d="M1765.5,17.8c-8,2.8-14.6,8.7-18.3,16.2h27.6L1765.5,17.8z"/>
		</g>
		<g>
			<path class="st0" d="M1777.2,62l9.4,16.2c8-2.8,14.6-8.7,18.3-16.2H1777.2z"/>
		</g>
		<g>
			<path class="st0" d="M1744.6,42c-0.4,1.9-0.6,3.9-0.6,6c0,6.6,2,12.8,5.5,17.9l13.8-23.9H1744.6z"/>
		</g>
		<g>
			<path class="st0" d="M1764.5,56l-9.4,16.2c5.6,4.9,12.9,7.8,20.9,7.8c0.8,0,1.5,0,2.3-0.1L1764.5,56z"/>
		</g>
		<g>
			<path class="st0" d="M1787.5,40l9.4-16.2c-5.6-4.9-12.9-7.8-20.9-7.8c-0.8,0-1.5,0-2.3,0.1L1787.5,40z"/>
		</g>
		<g>
			<path class="st0" d="M1802.5,30.1L1788.7,54h18.7c0.4-1.9,0.6-3.9,0.6-6C1808,41.4,1806,35.2,1802.5,30.1z"/>
		</g>
	</g>
</g>
<g id="_x30_9">
	<g>
		<g>
			<path class="st0" d="M1861.6,56l-9.7,16.9c5.5,4.5,12.5,7.1,20.1,7.1c1.1,0,2.3-0.1,3.4-0.2L1861.6,56z"/>
		</g>
		<g>
			<path class="st0" d="M1873.7,61l9.7,16.9c7.9-3,14.3-9.2,17.8-16.9H1873.7z"/>
		</g>
		<g>
			<path class="st0" d="M1870.3,35l-9.7-16.9c-7.9,3-14.3,9.2-17.8,16.9H1870.3z"/>
		</g>
		<g>
			<path class="st0" d="M1840.4,43c-0.3,1.6-0.4,3.3-0.4,5c0,7,2.3,13.5,6.1,18.8l13.7-23.8H1840.4z"/>
		</g>
		<g>
			<path class="st0" d="M1897.9,29.2L1884.1,53h19.5c0.3-1.6,0.4-3.3,0.4-5C1904,41,1901.7,34.5,1897.9,29.2z"/>
		</g>
		<g>
			<path class="st0" d="M1882.4,40l9.7-16.9c-5.5-4.5-12.5-7.1-20.1-7.1c-1.1,0-2.3,0.1-3.4,0.2L1882.4,40z"/>
		</g>
	</g>
</g>
<g id="_x30_7">
	<g>
		<g>
			<g>
				<path class="st0" d="M1955.6,18.5c-7.8,3.3-14.1,9.6-17.2,17.5h27.3L1955.6,18.5z"/>
			</g>
		</g>
		<g>
			<g>
				<path class="st0" d="M1970.3,60l10.1,17.5c7.8-3.3,14.1-9.6,17.2-17.5H1970.3z"/>
			</g>
		</g>
		<g>
			<g>
				<path class="st0" d="M1936.3,44c-0.2,1.3-0.3,2.6-0.3,4c0,7.4,2.5,14.2,6.8,19.7l13.7-23.7H1936.3z"/>
			</g>
		</g>
		<g>
			<g>
				<path class="st0" d="M1958.8,56l-10.1,17.5c5.4,4.1,12.1,6.5,19.3,6.5c1.5,0,3-0.1,4.4-0.3L1958.8,56z"/>
			</g>
		</g>
		<g>
			<g>
				<path class="st0" d="M1977.2,40l10.1-17.5c-5.4-4.1-12.1-6.5-19.3-6.5c-1.5,0-3,0.1-4.4,0.3L1977.2,40z"/>
			</g>
		</g>
		<g>
			<g>
				<path class="st0" d="M1993.2,28.3L1979.5,52h20.2c0.2-1.3,0.3-2.6,0.3-4C2000,40.6,1997.5,33.8,1993.2,28.3z"/>
			</g>
		</g>
	</g>
</g>
<g id="_x30_5">
	<g>
		<g>
			<path class="st0" d="M2049.8,19.4c-7.6,3.8-13.5,10.5-16.2,18.6h26.9L2049.8,19.4z"/>
		</g>
		<g>
			<path class="st0" d="M2032.1,46c0,0.7-0.1,1.3-0.1,2c0,8.2,3.1,15.6,8.2,21.3l13.5-23.3H2032.1z"/>
		</g>
		<g>
			<path class="st0" d="M2057.1,56l-10.8,18.6c5.1,3.4,11.2,5.4,17.7,5.4c2.2,0,4.4-0.2,6.5-0.7L2057.1,56z"/>
		</g>
		<g>
			<path class="st0" d="M2067.5,58l10.8,18.6c7.6-3.8,13.5-10.5,16.2-18.6H2067.5z"/>
		</g>
		<g>
			<path class="st0" d="M2070.9,40l10.8-18.6c-5.1-3.4-11.2-5.4-17.7-5.4c-2.2,0-4.4,0.2-6.5,0.7L2070.9,40z"/>
		</g>
		<g>
			<path class="st0" d="M2087.8,26.7L2074.4,50h21.5c0-0.7,0.1-1.3,0.1-2C2096,39.8,2092.9,32.4,2087.8,26.7z"/>
		</g>
	</g>
</g>
<g id="_x30_3">
	<g>
		<g>
			<path class="st0" d="M2164,57l11.1,19.2c7.5-4,13.1-10.9,15.6-19.2H2164z"/>
		</g>
		<g>
			<path class="st0" d="M2128,47c0,0.3,0,0.7,0,1c0,8.6,3.4,16.3,8.9,22.1l13.3-23.1H2128z"/>
		</g>
		<g>
			<path class="st0" d="M2144.9,19.8c-7.5,4-13.1,10.9-15.6,19.2h26.7L2144.9,19.8z"/>
		</g>
		<g>
			<path class="st0" d="M2165.8,40l11.1-19.2c-4.9-3-10.7-4.8-16.9-4.8c-2.6,0-5.1,0.3-7.6,0.9L2165.8,40z"/>
		</g>
		<g>
			<path class="st0" d="M2183.1,25.9L2169.8,49h22.2c0-0.3,0-0.7,0-1C2192,39.4,2188.6,31.7,2183.1,25.9z"/>
		</g>
		<g>
			<path class="st0" d="M2154.2,56l-11.1,19.2c4.9,3,10.7,4.8,16.9,4.8c2.6,0,5.1-0.3,7.6-0.9L2154.2,56z"/>
		</g>
	</g>
</g>
<g id="_x30_1">
	<g>
		<g>
			<path class="st0" d="M2224,48c0,8.9,3.7,17,9.6,22.8l13.2-22.8H2224z"/>
		</g>
		<g>
			<path class="st0" d="M2251.4,56L2240,75.7c4.7,2.7,10.2,4.3,16,4.3c3,0,5.8-0.4,8.6-1.2L2251.4,56z"/>
		</g>
		<g>
			<path class="st0" d="M2240,20.3c-7.3,4.2-12.8,11.3-15,19.7h26.4L2240,20.3z"/>
		</g>
		<g>
			<path class="st0" d="M2260.6,56l11.4,19.7c7.3-4.2,12.8-11.3,15-19.7H2260.6z"/>
		</g>
		<g>
			<path class="st0" d="M2278.4,25.2L2265.2,48h22.8C2288,39.1,2284.3,31,2278.4,25.2z"/>
		</g>
		<g>
			<path class="st0" d="M2260.6,40l11.4-19.7c-4.7-2.7-10.2-4.3-16-4.3c-3,0-5.8,0.4-8.6,1.2L2260.6,40z"/>
		</g>
	</g>
</g>
</svg>
