<?xml version="1.0" encoding="utf-8"?>
<!-- Generator: Adobe Illustrator 19.0.1, SVG Export Plug-In . SVG Version: 6.00 Build 0)  -->
<svg version="1.1" xmlns="http://www.w3.org/2000/svg" xmlns:xlink="http://www.w3.org/1999/xlink" x="0px" y="0px"
	 viewBox="0 0 2304 96" style="enable-background:new 0 0 2304 96;" xml:space="preserve">
<style type="text/css">
	.st0{fill:#FFFFFF;}
</style>
<g id="guides">
</g>
<g id="Layer_26">
</g>
<g id="_x34_6">
</g>
<g id="_x34_5">
	<g>
		<g>
			<path class="st0" d="M113.9,37.1c1.3-3.6,3.2-6.8,5.6-9.7L113.9,37.1z"/>
		</g>
		<g>
			<path class="st0" d="M113.9,58.9l5.6,9.7C117.1,65.7,115.2,62.4,113.9,58.9z"/>
		</g>
		<g>
			<path class="st0" d="M138.4,16.5c1.8-0.3,3.7-0.5,5.6-0.5c1.9,0,3.8,0.2,5.6,0.5H138.4z"/>
		</g>
		<g>
			<path class="st0" d="M174.1,58.9c-1.3,3.6-3.2,6.8-5.6,9.7L174.1,58.9z"/>
		</g>
		<g>
			<path class="st0" d="M149.6,79.5c-1.8,0.3-3.7,0.5-5.6,0.5c-1.9,0-3.8-0.2-5.6-0.5H149.6z"/>
		</g>
		<g>
			<path class="st0" d="M174.1,37.1l-5.6-9.7C170.9,30.3,172.8,33.6,174.1,37.1z"/>
		</g>
	</g>
</g>
<g id="_x34_3">
	<g>
		<g>
			<path class="st0" d="M231.9,18l0.6-1.1c2.4-0.6,4.9-0.9,7.4-0.9c3.9,0,7.7,0.7,11.1,2H231.9z"/>
		</g>
		<g>
			<path class="st0" d="M271.5,42.6L261.9,26h1.3C267.5,30.5,270.5,36.2,271.5,42.6z"/>
		</g>
		<g>
			<path class="st0" d="M248.1,78l-0.6,1.1c-2.4,0.6-4.9,0.9-7.4,0.9c-3.9,0-7.7-0.7-11.1-2H248.1z"/>
		</g>
		<g>
			<path class="st0" d="M270,56l0.6,1.1c-1.8,6.1-5.4,11.5-10.2,15.5L270,56z"/>
		</g>
		<g>
			<path class="st0" d="M218.1,70h-1.3c-4.3-4.5-7.3-10.2-8.3-16.6L218.1,70z"/>
		</g>
		<g>
			<path class="st0" d="M210,40l-0.6-1.1c1.8-6.1,5.4-11.5,10.2-15.5L210,40z"/>
		</g>
	</g>
</g>
<g id="_x34_1">
	<g>
		<g>
			<path class="st0" d="M328.5,19l1.4-2.4c2-0.4,4-0.6,6.1-0.6c4.8,0,9.4,1.1,13.5,3H328.5z"/>
		</g>
		<g>
			<path class="st0" d="M367.9,45.2L357.4,27h2.8C364.4,32,367.3,38.3,367.9,45.2z"/>
		</g>
		<g>
			<path class="st0" d="M343.5,77l-1.4,2.4c-2,0.4-4,0.6-6.1,0.6c-4.8,0-9.4-1.1-13.5-3H343.5z"/>
		</g>
		<g>
			<path class="st0" d="M364.9,56l1.4,2.4c-2.2,6.4-6.4,11.9-11.9,15.8L364.9,56z"/>
		</g>
		<g>
			<path class="st0" d="M314.6,69h-2.8c-4.3-5-7.2-11.3-7.8-18.2L314.6,69z"/>
		</g>
		<g>
			<path class="st0" d="M307.1,40l-1.4-2.4c2.2-6.4,6.4-11.9,11.9-15.8L307.1,40z"/>
		</g>
	</g>
</g>
<g id="_x33_9">
	<g>
		<g>
			<path class="st0" d="M438.9,76l-2.1,3.6c-1.6,0.2-3.2,0.4-4.8,0.4c-5.6,0-10.9-1.5-15.5-4H438.9z"/>
		</g>
		<g>
			<path class="st0" d="M425.1,20l2.1-3.6c1.6-0.2,3.2-0.4,4.8-0.4c5.6,0,10.9,1.5,15.5,4H425.1z"/>
		</g>
		<g>
			<path class="st0" d="M457,28c4.3,5.3,6.9,12.1,7,19.4L452.8,28H457z"/>
		</g>
		<g>
			<path class="st0" d="M404.3,40l-2.1-3.6c2.6-6.6,7.3-12.1,13.3-15.8L404.3,40z"/>
		</g>
		<g>
			<path class="st0" d="M459.7,56l2.1,3.6c-2.6,6.6-7.3,12.1-13.3,15.8L459.7,56z"/>
		</g>
		<g>
			<path class="st0" d="M411.2,68H407c-4.3-5.3-6.9-12.1-7-19.4L411.2,68z"/>
		</g>
	</g>
</g>
<g id="_x33_7">
	<g>
		<g>
			<path class="st0" d="M554.6,56l2.8,4.8c-2.9,6.7-8.1,12.2-14.5,15.6L554.6,56z"/>
		</g>
		<g>
			<path class="st0" d="M553.7,29c3.9,5.3,6.3,11.9,6.3,19c0,0.5,0,0.9,0,1.4L548.2,29H553.7z"/>
		</g>
		<g>
			<path class="st0" d="M534.4,75l-2.8,4.8c-1.2,0.1-2.4,0.2-3.6,0.2c-6.3,0-12.2-1.8-17.1-5H534.4z"/>
		</g>
		<g>
			<path class="st0" d="M521.6,21l2.8-4.8c1.2-0.1,2.4-0.2,3.6-0.2c6.3,0,12.2,1.8,17.1,5H521.6z"/>
		</g>
		<g>
			<path class="st0" d="M501.4,40l-2.8-4.8c2.9-6.7,8.1-12.2,14.5-15.6L501.4,40z"/>
		</g>
		<g>
			<path class="st0" d="M496,46.6L507.8,67h-5.5c-3.9-5.3-6.3-11.9-6.3-19C496,47.5,496,47.1,496,46.6z"/>
		</g>
	</g>
</g>
<g id="_x33_5">
	<g>
		<g>
			<path class="st0" d="M618.2,22l3.4-5.9c0.8-0.1,1.6-0.1,2.4-0.1c6.9,0,13.4,2.2,18.6,6H618.2z"/>
		</g>
		<g>
			<path class="st0" d="M650.4,30c3.5,5.1,5.6,11.3,5.6,18c0,1.1-0.1,2.1-0.2,3.2L643.6,30H650.4z"/>
		</g>
		<g>
			<path class="st0" d="M629.8,74l-3.4,5.9c-0.8,0.1-1.6,0.1-2.4,0.1c-6.9,0-13.4-2.2-18.6-6H629.8z"/>
		</g>
		<g>
			<path class="st0" d="M649.4,56l3.4,5.9c-3.3,6.7-8.8,12.1-15.6,15.2L649.4,56z"/>
		</g>
		<g>
			<path class="st0" d="M598.6,40l-3.4-5.9c3.3-6.7,8.8-12.1,15.6-15.2L598.6,40z"/>
		</g>
		<g>
			<path class="st0" d="M592.2,44.8L604.4,66h-6.8c-3.5-5.1-5.6-11.3-5.6-18C592,46.9,592.1,45.9,592.2,44.8z"/>
		</g>
	</g>
</g>
<g id="_x33_3">
	<g>
		<g>
			<path class="st0" d="M747.1,31c3.1,4.9,4.9,10.8,4.9,17c0,1.6-0.1,3.2-0.4,4.8L739.1,31H747.1z"/>
		</g>
		<g>
			<path class="st0" d="M725.2,73l-4,7c-0.4,0-0.8,0-1.2,0c-7.5,0-14.5-2.6-19.9-7H725.2z"/>
		</g>
		<g>
			<path class="st0" d="M718.8,16c0.4,0,0.8,0,1.2,0c7.5,0,14.5,2.6,19.9,7h-25.1L718.8,16z"/>
		</g>
		<g>
			<path class="st0" d="M744.2,56l4,7c-3.6,6.7-9.5,12-16.6,14.8L744.2,56z"/>
		</g>
		<g>
			<path class="st0" d="M695.8,40l-4-7c3.6-6.7,9.5-12,16.6-14.8L695.8,40z"/>
		</g>
		<g>
			<path class="st0" d="M688.4,43.2L700.9,65h-8c-3.1-4.9-4.9-10.8-4.9-17C688,46.4,688.1,44.8,688.4,43.2z"/>
		</g>
	</g>
</g>
<g id="_x33_1">
	<g>
		<g>
			<path class="st0" d="M839.1,56l4.6,8c-3.9,6.7-10.1,11.8-17.5,14.3L839.1,56z"/>
		</g>
		<g>
			<path class="st0" d="M820.6,72l-4.6,8c-8.1,0-15.5-3-21.1-8H820.6z"/>
		</g>
		<g>
			<path class="st0" d="M843.7,32c2.7,4.7,4.3,10.2,4.3,16c0,2.2-0.2,4.3-0.6,6.3L834.5,32H843.7z"/>
		</g>
		<g>
			<path class="st0" d="M816,16L816,16c8.1,0,15.5,3,21.1,8h-25.8L816,16z"/>
		</g>
		<g>
			<path class="st0" d="M792.9,40l-4.6-8c3.9-6.7,10.1-11.8,17.5-14.3L792.9,40z"/>
		</g>
		<g>
			<path class="st0" d="M784.6,41.7L797.5,64h-9.2c-2.7-4.7-4.3-10.2-4.3-16C784,45.8,784.2,43.7,784.6,41.7z"/>
		</g>
	</g>
</g>
<g id="_x32_9">
	<g>
		<g>
			<path class="st0" d="M913.1,16c8.2,0.3,15.6,3.7,21.1,9H908L913.1,16z"/>
		</g>
		<g>
			<path class="st0" d="M940.3,33c2.4,4.5,3.7,9.6,3.7,15c0,2.7-0.3,5.3-1,7.8L929.9,33H940.3z"/>
		</g>
		<g>
			<path class="st0" d="M916,71l-5.2,9c-8.2-0.3-15.6-3.7-21.1-9H916z"/>
		</g>
		<g>
			<path class="st0" d="M933.9,56l5.2,9c-4.2,6.6-10.6,11.6-18.3,13.8L933.9,56z"/>
		</g>
		<g>
			<path class="st0" d="M881,40.2L894.1,63h-10.4c-2.4-4.5-3.7-9.6-3.7-15C880,45.3,880.3,42.7,881,40.2z"/>
		</g>
		<g>
			<path class="st0" d="M890.1,40l-5.2-9c4.2-6.6,10.6-11.6,18.3-13.8L890.1,40z"/>
		</g>
	</g>
</g>
<g id="_x32_7">
	<g>
		<g>
			<path class="st0" d="M1036.8,34c2.1,4.2,3.2,9,3.2,14c0,3.2-0.5,6.2-1.3,9.1L1025.3,34H1036.8z"/>
		</g>
		<g>
			<path class="st0" d="M1010.3,16.1c8.2,0.6,15.6,4.3,20.9,9.9h-26.7L1010.3,16.1z"/>
		</g>
		<g>
			<path class="st0" d="M1011.5,70l-5.7,9.9c-8.2-0.6-15.6-4.3-20.9-9.9H1011.5z"/>
		</g>
		<g>
			<path class="st0" d="M1028.8,56l5.7,9.9c-4.4,6.5-11.2,11.3-19.1,13.2L1028.8,56z"/>
		</g>
		<g>
			<path class="st0" d="M987.2,40l-5.7-9.9c4.4-6.5,11.2-11.3,19.1-13.2L987.2,40z"/>
		</g>
		<g>
			<path class="st0" d="M977.3,38.9L990.7,62h-11.4c-2.1-4.2-3.2-9-3.2-14C976,44.8,976.5,41.8,977.3,38.9z"/>
		</g>
	</g>
</g>
<g id="_x32_5">
	<g>
		<g>
			<path class="st0" d="M1107.4,16.2c8.3,0.9,15.6,4.9,20.8,10.8h-27L1107.4,16.2z"/>
		</g>
		<g>
			<path class="st0" d="M1133.2,35c1.8,4,2.8,8.4,2.8,13c0,3.6-0.6,7.1-1.7,10.4L1120.7,35H1133.2z"/>
		</g>
		<g>
			<path class="st0" d="M1106.9,69l-6.2,10.8c-8.3-0.9-15.6-4.9-20.8-10.8H1106.9z"/>
		</g>
		<g>
			<path class="st0" d="M1073.7,37.6l13.5,23.4h-12.5c-1.8-4-2.8-8.4-2.8-13C1072,44.4,1072.6,40.9,1073.7,37.6z"/>
		</g>
		<g>
			<path class="st0" d="M1084.4,40l-6.2-10.8c4.7-6.4,11.7-11,19.8-12.6L1084.4,40z"/>
		</g>
		<g>
			<path class="st0" d="M1123.6,56l6.2,10.8c-4.7,6.4-11.7,11-19.8,12.6L1123.6,56z"/>
		</g>
	</g>
</g>
<g id="_x32_3">
	<g>
		<g>
			<path class="st0" d="M1204.4,16.3c8.3,1.2,15.5,5.5,20.5,11.7h-27.3L1204.4,16.3z"/>
		</g>
		<g>
			<path class="st0" d="M1229.7,36c1.5,3.7,2.3,7.8,2.3,12c0,4.1-0.8,8-2.2,11.6L1216.2,36H1229.7z"/>
		</g>
		<g>
			<path class="st0" d="M1202.3,68l-6.7,11.7c-8.3-1.2-15.5-5.5-20.5-11.7H1202.3z"/>
		</g>
		<g>
			<path class="st0" d="M1218.5,56l6.7,11.7c-4.9,6.3-12.1,10.7-20.4,12L1218.5,56z"/>
		</g>
		<g>
			<path class="st0" d="M1170.2,36.4l13.6,23.6h-13.5c-1.5-3.7-2.3-7.8-2.3-12C1168,43.9,1168.8,40,1170.2,36.4z"/>
		</g>
		<g>
			<path class="st0" d="M1181.5,40l-6.7-11.7c4.9-6.3,12.1-10.7,20.4-12L1181.5,40z"/>
		</g>
	</g>
</g>
<g id="_x32_1">
	<g>
		<g>
			<path class="st0" d="M1326.1,37c1.3,3.4,1.9,7.1,1.9,11c0,4.5-1,8.9-2.7,12.8L1311.6,37H1326.1z"/>
		</g>
		<g>
			<path class="st0" d="M1297.7,67l-7.2,12.5c-8.3-1.4-15.4-6-20.2-12.5H1297.7z"/>
		</g>
		<g>
			<path class="st0" d="M1301.5,16.5c8.3,1.4,15.4,6,20.2,12.5h-27.5L1301.5,16.5z"/>
		</g>
		<g>
			<path class="st0" d="M1266.7,35.2l13.7,23.8h-14.5c-1.3-3.4-1.9-7.1-1.9-11C1264,43.5,1265,39.1,1266.7,35.2z"/>
		</g>
		<g>
			<path class="st0" d="M1278.7,40l-7.2-12.5c5.2-6.2,12.6-10.3,21-11.3L1278.7,40z"/>
		</g>
		<g>
			<path class="st0" d="M1313.3,56l7.2,12.5c-5.2,6.2-12.6,10.3-21,11.3L1313.3,56z"/>
		</g>
	</g>
</g>
<g id="_x31_9">
	<g>
		<g>
			<path class="st0" d="M1422.4,38c1,3.1,1.6,6.5,1.6,10c0,5-1.1,9.7-3.2,13.9L1407,38H1422.4z"/>
		</g>
		<g>
			<path class="st0" d="M1398.5,16.7c8.2,1.7,15.3,6.6,19.9,13.3h-27.6L1398.5,16.7z"/>
		</g>
		<g>
			<path class="st0" d="M1393.2,66l-7.7,13.3c-8.2-1.7-15.3-6.6-19.9-13.3H1393.2z"/>
		</g>
		<g>
			<path class="st0" d="M1408.2,56l7.7,13.3c-5.4,6-13,10-21.5,10.6L1408.2,56z"/>
		</g>
		<g>
			<path class="st0" d="M1375.8,40l-7.7-13.3c5.4-6,13-10,21.5-10.6L1375.8,40z"/>
		</g>
		<g>
			<path class="st0" d="M1363.2,34.1L1377,58h-15.4c-1-3.1-1.6-6.5-1.6-10C1360,43,1361.1,38.3,1363.2,34.1z"/>
		</g>
	</g>
</g>
<g id="_x31_7">
	<g>
		<g>
			<g>
				<path class="st0" d="M1518.7,39c0.8,2.9,1.3,5.9,1.3,9c0,5.4-1.4,10.5-3.7,15l-13.8-24H1518.7z"/>
			</g>
		</g>
		<g>
			<g>
				<path class="st0" d="M1488.6,65l-8.1,14.1c-8.2-2-15.2-7.1-19.5-14.1H1488.6z"/>
			</g>
		</g>
		<g>
			<g>
				<path class="st0" d="M1495.6,16.9c8.2,2,15.2,7.1,19.5,14.1h-27.7L1495.6,16.9z"/>
			</g>
		</g>
		<g>
			<g>
				<path class="st0" d="M1473,40l-8.1-14.1c5.6-5.8,13.3-9.6,22-9.9L1473,40z"/>
			</g>
		</g>
		<g>
			<g>
				<path class="st0" d="M1459.7,33l13.8,24h-16.3c-0.8-2.9-1.3-5.9-1.3-9C1456,42.6,1457.4,37.5,1459.7,33z"/>
			</g>
		</g>
		<g>
			<g>
				<path class="st0" d="M1503,56l8.1,14.1c-5.6,5.8-13.3,9.6-22,9.9L1503,56z"/>
			</g>
		</g>
	</g>
</g>
<g id="_x31_5">
	<g>
		<g>
			<path class="st0" d="M1615,40c0.7,2.6,1,5.2,1,8c0,5.8-1.6,11.3-4.3,16l-13.8-24H1615z"/>
		</g>
		<g>
			<path class="st0" d="M1592.6,17.2c8.1,2.3,15,7.7,19.1,14.8H1584L1592.6,17.2z"/>
		</g>
		<g>
			<path class="st0" d="M1584,64l-8.6,14.8c-8.1-2.3-15-7.7-19.1-14.8H1584z"/>
		</g>
		<g>
			<path class="st0" d="M1556.3,32l13.8,24H1553c-0.7-2.6-1-5.2-1-8C1552,42.2,1553.6,36.7,1556.3,32z"/>
		</g>
		<g>
			<path class="st0" d="M1597.9,56l8.6,14.8c-5.8,5.7-13.7,9.2-22.4,9.2h0L1597.9,56z"/>
		</g>
		<g>
			<path class="st0" d="M1570.1,40l-8.6-14.8c5.8-5.7,13.7-9.2,22.4-9.2h0L1570.1,40z"/>
		</g>
	</g>
</g>
<g id="_x31_3">
	<g>
		<g>
			<path class="st0" d="M1711.2,41c0.5,2.3,0.8,4.6,0.8,7c0,6.2-1.8,12-4.9,17l-13.8-24H1711.2z"/>
		</g>
		<g>
			<path class="st0" d="M1689.6,17.5c8.1,2.5,14.8,8.2,18.7,15.5h-27.7L1689.6,17.5z"/>
		</g>
		<g>
			<path class="st0" d="M1679.4,63l-9,15.5c-8.1-2.5-14.8-8.2-18.7-15.5H1679.4z"/>
		</g>
		<g>
			<path class="st0" d="M1667.3,40l-9-15.5c5.7-5.3,13.3-8.5,21.7-8.5c0.4,0,0.8,0,1.1,0L1667.3,40z"/>
		</g>
		<g>
			<path class="st0" d="M1692.7,56l9,15.5c-5.7,5.3-13.3,8.5-21.7,8.5c-0.4,0-0.8,0-1.1,0L1692.7,56z"/>
		</g>
		<g>
			<path class="st0" d="M1652.9,31l13.8,24h-17.9c-0.5-2.3-0.8-4.6-0.8-7C1648,41.8,1649.8,36,1652.9,31z"/>
		</g>
	</g>
</g>
<g id="_x31_1">
	<g>
		<g>
			<path class="st0" d="M1786.5,17.8c8,2.8,14.6,8.7,18.3,16.2h-27.6L1786.5,17.8z"/>
		</g>
		<g>
			<path class="st0" d="M1774.8,62l-9.4,16.2c-8-2.8-14.6-8.7-18.3-16.2H1774.8z"/>
		</g>
		<g>
			<path class="st0" d="M1807.4,42c0.4,1.9,0.6,3.9,0.6,6c0,6.6-2,12.8-5.5,17.9L1788.7,42H1807.4z"/>
		</g>
		<g>
			<path class="st0" d="M1787.5,56l9.4,16.2c-5.6,4.9-12.9,7.8-20.9,7.8c-0.8,0-1.5,0-2.3-0.1L1787.5,56z"/>
		</g>
		<g>
			<path class="st0" d="M1764.5,40l-9.4-16.2c5.6-4.9,12.9-7.8,20.9-7.8c0.8,0,1.5,0,2.3,0.1L1764.5,40z"/>
		</g>
		<g>
			<path class="st0" d="M1749.5,30.1l13.8,23.9h-18.7c-0.4-1.9-0.6-3.9-0.6-6C1744,41.4,1746,35.2,1749.5,30.1z"/>
		</g>
	</g>
</g>
<g id="_x30_9">
	<g>
		<g>
			<path class="st0" d="M1882.4,56l9.7,16.9c-5.5,4.5-12.5,7.1-20.1,7.1c-1.1,0-2.3-0.1-3.4-0.2L1882.4,56z"/>
		</g>
		<g>
			<path class="st0" d="M1870.3,61l-9.7,16.9c-7.9-3-14.3-9.2-17.8-16.9H1870.3z"/>
		</g>
		<g>
			<path class="st0" d="M1873.7,35l9.7-16.9c7.9,3,14.3,9.2,17.8,16.9H1873.7z"/>
		</g>
		<g>
			<path class="st0" d="M1903.6,43c0.3,1.6,0.4,3.3,0.4,5c0,7-2.3,13.5-6.1,18.8L1884.1,43H1903.6z"/>
		</g>
		<g>
			<path class="st0" d="M1846.1,29.2l13.7,23.8h-19.5c-0.3-1.6-0.4-3.3-0.4-5C1840,41,1842.3,34.5,1846.1,29.2z"/>
		</g>
		<g>
			<path class="st0" d="M1861.6,40l-9.7-16.9c5.5-4.5,12.5-7.1,20.1-7.1c1.1,0,2.3,0.1,3.4,0.2L1861.6,40z"/>
		</g>
	</g>
</g>
<g id="_x30_7">
	<g>
		<g>
			<g>
				<path class="st0" d="M1980.4,18.5c7.8,3.3,14.1,9.6,17.2,17.5h-27.3L1980.4,18.5z"/>
			</g>
		</g>
		<g>
			<g>
				<path class="st0" d="M1965.7,60l-10.1,17.5c-7.8-3.3-14.1-9.6-17.2-17.5H1965.7z"/>
			</g>
		</g>
		<g>
			<g>
				<path class="st0" d="M1999.7,44c0.2,1.3,0.3,2.6,0.3,4c0,7.4-2.5,14.2-6.8,19.7L1979.5,44H1999.7z"/>
			</g>
		</g>
		<g>
			<g>
				<path class="st0" d="M1977.2,56l10.1,17.5c-5.4,4.1-12.1,6.5-19.3,6.5c-1.5,0-3-0.1-4.4-0.3L1977.2,56z"/>
			</g>
		</g>
		<g>
			<g>
				<path class="st0" d="M1958.8,40l-10.1-17.5c5.4-4.1,12.1-6.5,19.3-6.5c1.5,0,3,0.1,4.4,0.3L1958.8,40z"/>
			</g>
		</g>
		<g>
			<g>
				<path class="st0" d="M1942.8,28.3l13.7,23.7h-20.2c-0.2-1.3-0.3-2.6-0.3-4C1936,40.6,1938.5,33.8,1942.8,28.3z"/>
			</g>
		</g>
	</g>
</g>
<g id="_x30_5">
	<g>
		<g>
			<path class="st0" d="M2078.2,19.4c7.6,3.8,13.5,10.5,16.2,18.6h-26.9L2078.2,19.4z"/>
		</g>
		<g>
			<path class="st0" d="M2095.9,46c0,0.7,0.1,1.3,0.1,2c0,8.2-3.1,15.6-8.2,21.3L2074.4,46H2095.9z"/>
		</g>
		<g>
			<path class="st0" d="M2070.9,56l10.8,18.6c-5.1,3.4-11.2,5.4-17.7,5.4c-2.2,0-4.4-0.2-6.5-0.7L2070.9,56z"/>
		</g>
		<g>
			<path class="st0" d="M2060.5,58l-10.8,18.6c-7.6-3.8-13.5-10.5-16.2-18.6H2060.5z"/>
		</g>
		<g>
			<path class="st0" d="M2057.1,40l-10.8-18.6c5.1-3.4,11.2-5.4,17.7-5.4c2.2,0,4.4,0.2,6.5,0.7L2057.1,40z"/>
		</g>
		<g>
			<path class="st0" d="M2040.2,26.7l13.5,23.3h-21.5c0-0.7-0.1-1.3-0.1-2C2032,39.8,2035.1,32.4,2040.2,26.7z"/>
		</g>
	</g>
</g>
<g id="_x30_3">
	<g>
		<g>
			<path class="st0" d="M2156,57l-11.1,19.2c-7.5-4-13.1-10.9-15.6-19.2H2156z"/>
		</g>
		<g>
			<path class="st0" d="M2192,47c0,0.3,0,0.7,0,1c0,8.6-3.4,16.3-8.9,22.1L2169.8,47H2192z"/>
		</g>
		<g>
			<path class="st0" d="M2175.1,19.8c7.5,4,13.1,10.9,15.6,19.2H2164L2175.1,19.8z"/>
		</g>
		<g>
			<path class="st0" d="M2154.2,40l-11.1-19.2c4.9-3,10.7-4.8,16.9-4.8c2.6,0,5.1,0.3,7.6,0.9L2154.2,40z"/>
		</g>
		<g>
			<path class="st0" d="M2136.9,25.9l13.3,23.1H2128c0-0.3,0-0.7,0-1C2128,39.4,2131.4,31.7,2136.9,25.9z"/>
		</g>
		<g>
			<path class="st0" d="M2165.8,56l11.1,19.2c-4.9,3-10.7,4.8-16.9,4.8c-2.6,0-5.1-0.3-7.6-0.9L2165.8,56z"/>
		</g>
	</g>
</g>
<g id="_x30_1">
	<g>
		<g>
			<path class="st0" d="M2288,48c0,8.9-3.7,17-9.6,22.8L2265.2,48H2288z"/>
		</g>
		<g>
			<path class="st0" d="M2260.6,56l11.4,19.7c-4.7,2.7-10.2,4.3-16,4.3c-3,0-5.8-0.4-8.6-1.2L2260.6,56z"/>
		</g>
		<g>
			<path class="st0" d="M2272,20.3c7.3,4.2,12.8,11.3,15,19.7h-26.4L2272,20.3z"/>
		</g>
		<g>
			<path class="st0" d="M2251.4,56L2240,75.7c-7.3-4.2-12.8-11.7-15-19.7H2251.4z"/>
		</g>
		<g>
			<path class="st0" d="M2233.6,25.2l13.2,22.8H2224C2224,39,2227.7,31,2233.6,25.2z"/>
		</g>
		<g>
			<path class="st0" d="M2251.4,40L2240,20.3c4.7-2.7,10.2-4.3,16-4.3c3,0,5.8,0.4,8.6,1.2L2251.4,40z"/>
		</g>
	</g>
</g>
</svg>
