<?xml version="1.0" encoding="utf-8"?>
<!-- Generator: Adobe Illustrator 19.0.1, SVG Export Plug-In . SVG Version: 6.00 Build 0)  -->
<svg version="1.1" xmlns="http://www.w3.org/2000/svg" xmlns:xlink="http://www.w3.org/1999/xlink" x="0px" y="0px"
	 viewBox="0 0 36 44" style="enable-background:new 0 0 36 44;" xml:space="preserve">
<style type="text/css">
	.st0{fill:#FFFFFF;}
</style>
<g id="guides">
</g>
<g id="_x30_1">
	<path class="st0" d="M32,4h-8c0-2.2-1.8-4-4-4h-4c-2.2,0-4,1.8-4,4H4C1.8,4,0,5.8,0,8v28c0,2.2,1.8,4,4,4h28c2.2,0,4-1.8,4-4V8
		C36,5.8,34.2,4,32,4z M3,9c0-1.1,0.9-2,2-2c1.1,0,2,0.9,2,2c0,1.1-0.9,2-2,2C3.9,11,3,10.1,3,9z M18,36c-7.7,0-14-6.3-14-14
		S10.3,8,18,8s14,6.3,14,14S25.7,36,18,36z"/>
</g>
</svg>
