<?xml version="1.0" encoding="utf-8"?>
<!-- Generator: Adobe Illustrator 19.0.1, SVG Export Plug-In . SVG Version: 6.00 Build 0)  -->
<svg version="1.1" xmlns="http://www.w3.org/2000/svg" xmlns:xlink="http://www.w3.org/1999/xlink" x="0px" y="0px"
	 viewBox="0 0 240 200" style="enable-background:new 0 0 240 200;" xml:space="preserve">
<g id="Layer_4">
	<rect id="bounds_3_" style="fill:none;" width="240" height="200"/>
	<g id="ring_3_">
		<path style="fill:#E8E8E8;" d="M112,183c-43.6,0-79-35.4-79-79s35.4-79,79-79s79,35.4,79,79S155.6,183,112,183z"/>
		<path d="M112,26c43,0,78,35,78,78s-35,78-78,78s-78-35-78-78S69,26,112,26 M112,24c-44.2,0-80,35.8-80,80s35.8,80,80,80
			s80-35.8,80-80S156.2,24,112,24L112,24z"/>
	</g>
	<path id="shadow-top_1_" style="opacity:0.2;" d="M112,32c39.7,0,72,32.3,72,72h8c0-44.2-35.8-80-80-80s-80,35.8-80,80h8
		C40,64.3,72.3,32,112,32z"/>
	<g id="document-group_2_">
		<defs>
			<path id="SVGID_1_" d="M176,16H48v132.6c14.1,20.2,37.5,33.4,64,33.4s49.9-13.2,64-33.4V16z"/>
		</defs>
		<clipPath id="SVGID_2_">
			<use xlink:href="#SVGID_1_"  style="overflow:visible;"/>
		</clipPath>
		<g id="document_3_" style="clip-path:url(#SVGID_2_);">
			<g id="background_2_">
				<path style="fill:#FFFFFF;" d="M49,191V20c0-1.7,1.3-3,3-3h120c1.7,0,3,1.3,3,3v171H49z"/>
				<path d="M172,18c1.1,0,2,0.9,2,2v170H50V20c0-1.1,0.9-2,2-2H172 M172,16H52c-2.2,0-4,1.8-4,4v172h128V20
					C176,17.8,174.2,16,172,16L172,16z"/>
			</g>
			<rect x="48" y="28" width="128" height="2"/>
			<g>
				<circle style="fill:#606060;" cx="56" cy="23" r="2"/>
				<circle style="fill:#606060;" cx="62" cy="23" r="2"/>
				<circle style="fill:#606060;" cx="68" cy="23" r="2"/>
			</g>
			<rect x="50" y="30" style="fill:#E0E0E0;" width="124" height="47"/>
			<path style="display:none;fill:#707070;" d="M127,47h-20c-3.3,0-6,2.7-6,6v0c0,3.3,2.7,6,6,6h20c3.3,0,6-2.7,6-6v0
				C133,49.7,130.3,47,127,47z"/>
			<path style="fill:#E6E6E6;" d="M104,121H64c-2.2,0-4-1.8-4-4V89c0-2.2,1.8-4,4-4h40c2.2,0,4,1.8,4,4v28
				C108,119.2,106.2,121,104,121z"/>
			<path style="fill:#D1D1D1;" d="M160,121h-40c-2.2,0-4-1.8-4-4V89c0-2.2,1.8-4,4-4h40c2.2,0,4,1.8,4,4v28
				C164,119.2,162.2,121,160,121z"/>
			<path style="fill:#E6E6E6;" d="M104,161H64c-2.2,0-4-1.8-4-4v-28c0-2.2,1.8-4,4-4h40c2.2,0,4,1.8,4,4v28
				C108,159.2,106.2,161,104,161z"/>
			<path style="fill:#E6E6E6;" d="M104,201H64c-2.2,0-4-1.8-4-4v-28c0-2.2,1.8-4,4-4h40c2.2,0,4,1.8,4,4v28
				C108,199.2,106.2,201,104,201z"/>
			<path style="fill:#E6E6E6;" d="M160,161h-40c-2.2,0-4-1.8-4-4v-28c0-2.2,1.8-4,4-4h40c2.2,0,4,1.8,4,4v28
				C164,159.2,162.2,161,160,161z"/>
			<path style="fill:#E6E6E6;" d="M160,201h-40c-2.2,0-4-1.8-4-4v-28c0-2.2,1.8-4,4-4h40c2.2,0,4,1.8,4,4v28
				C164,199.2,162.2,201,160,201z"/>
			<path style="fill:#9E9E9E;" d="M134,58H90c-3.3,0-6-2.7-6-6v0c0-3.3,2.7-6,6-6h44c3.3,0,6,2.7,6,6v0C140,55.3,137.3,58,134,58z"
				/>
		</g>
	</g>
	<path id="shadow-bottom_1_" style="opacity:0.2;" d="M112,176c-39.7,0-72-32.3-72-72h-8c0,44.2,35.8,80,80,80s80-35.8,80-80h-8
		C184,143.7,151.7,176,112,176z"/>
	<g id="image-group_2_">
		<g id="path-cap_3_">
			<circle style="fill:#848484;" cx="84" cy="103" r="4"/>
		</g>
		<g id="path-cap_2_">
			<circle style="fill:#848484;" cx="140" cy="143" r="4"/>
		</g>
		<g id="photo_9_">
			<g style="opacity:0.2;">
				<path style="fill:#070707;" d="M166,121h-44c-3.3,0-6-2.7-6-6V85c0-3.3,2.7-6,6-6h44c3.3,0,6,2.7,6,6v30
					C172,118.3,169.3,121,166,121z"/>
			</g>
			<g>
				<path style="fill:#FFFFFF;" d="M171,116h-44c-3.3,0-6-2.7-6-6V80c0-3.3,2.7-6,6-6h44c3.3,0,6,2.7,6,6v30
					C177,113.3,174.3,116,171,116z"/>
				<path d="M171,117h-44c-3.9,0-7-3.1-7-7V80c0-3.9,3.1-7,7-7h44c3.9,0,7,3.1,7,7v30C178,113.9,174.9,117,171,117z M127,75
					c-2.8,0-5,2.2-5,5v30c0,2.8,2.2,5,5,5h44c2.8,0,5-2.2,5-5V80c0-2.8-2.2-5-5-5H127z"/>
			</g>
			<g>
				<path style="fill:#D3D3D3;" d="M130.6,105.6h8c1,0,1.8-0.8,1.8-1.8v-8c0-1.6-1.9-2.3-3-1.2l-8,8
					C128.3,103.7,129.1,105.6,130.6,105.6z"/>
			</g>
			<g>
				<path style="fill:#D3D3D3;" d="M145.1,96.4l4.5,4.5c1.1,1.1,3,0.3,3-1.2v-9c0-1.6-1.9-2.3-3-1.2l-4.5,4.5
					C144.4,94.6,144.4,95.7,145.1,96.4z"/>
			</g>
			<g>
				<path d="M170.3,105.5l-15.9-15.9c-1-1-2.6-1-3.5,0l-6.3,6.3l-1.4-1.4l6.3-6.3c1.8-1.8,4.6-1.8,6.4,0l15.9,15.9L170.3,105.5z"/>
			</g>
			<g>
				<path d="M127.3,105.8c-0.3,0-0.5-0.1-0.7-0.3c-0.4-0.4-0.4-1,0-1.4l10.7-10.7c1.8-1.8,4.6-1.8,6.4,0l6.3,6.3
					c0.4,0.4,0.4,1,0,1.4s-1,0.4-1.4,0l-6.3-6.3c-1-1-2.6-1-3.5,0L128,105.5C127.8,105.7,127.5,105.8,127.3,105.8z"/>
			</g>
			<g>
				<path style="fill:#CCCCCC;" d="M140,80c-1.7,0-3,1.3-3,3s1.3,3,3,3s3-1.3,3-3S141.7,80,140,80L140,80z"/>
			</g>
		</g>
		<g id="photo_8_">
			<g style="opacity:0.2;">
				<path d="M50,92H6c-3.3,0-6-2.7-6-6V56c0-3.3,2.7-6,6-6h44c3.3,0,6,2.7,6,6v30C56,89.3,53.3,92,50,92z"/>
			</g>
			<g>
				<path style="fill:#FFFFFF;" d="M55,87H11c-3.3,0-6-2.7-6-6V51c0-3.3,2.7-6,6-6h44c3.3,0,6,2.7,6,6v30C61,84.3,58.3,87,55,87z"/>
				<path d="M55,88H11c-3.9,0-7-3.1-7-7V51c0-3.9,3.1-7,7-7h44c3.9,0,7,3.1,7,7v30C62,84.9,58.9,88,55,88z M11,46c-2.8,0-5,2.2-5,5
					v30c0,2.8,2.2,5,5,5h44c2.8,0,5-2.2,5-5V51c0-2.8-2.2-5-5-5H11z"/>
			</g>
			<g>
				<path style="fill:#D3D3D3;" d="M14.6,75.6h8c1,0,1.8-0.8,1.8-1.8v-8c0-1.6-1.9-2.3-3-1.2l-8,8C12.3,73.7,13.1,75.6,14.6,75.6z"
					/>
			</g>
			<g>
				<path style="fill:#D3D3D3;" d="M29.1,66.4l4.5,4.5c1.1,1.1,3,0.3,3-1.2v-9c0-1.6-1.9-2.3-3-1.2l-4.5,4.5
					C28.4,64.6,28.4,65.7,29.1,66.4z"/>
			</g>
			<g>
				<path d="M54.3,75.5L38.4,59.6c-1-1-2.6-1-3.5,0l-6.3,6.3l-1.4-1.4l6.3-6.3c1.8-1.8,4.6-1.8,6.4,0L55.7,74L54.3,75.5z"/>
			</g>
			<g>
				<path d="M11.3,75.8c-0.3,0-0.5-0.1-0.7-0.3c-0.4-0.4-0.4-1,0-1.4l10.7-10.7c1.8-1.8,4.6-1.8,6.4,0l6.3,6.3c0.4,0.4,0.4,1,0,1.4
					s-1,0.4-1.4,0l-6.3-6.3c-1-1-2.6-1-3.5,0L12,75.5C11.8,75.7,11.5,75.8,11.3,75.8z"/>
			</g>
			<g>
				<g>
					<circle style="fill:#CCCCCC;" cx="24" cy="53" r="2.5"/>
				</g>
				<g>
					<path style="fill:#CCCCCC;" d="M24,50c-1.7,0-3,1.3-3,3s1.3,3,3,3s3-1.3,3-3S25.7,50,24,50L24,50z"/>
				</g>
			</g>
		</g>
		<g id="photo_7_">
			<g style="opacity:0.2;">
				<path style="fill:#070707;" d="M228,166h-44c-3.3,0-6-2.7-6-6v-30c0-3.3,2.7-6,6-6h44c3.3,0,6,2.7,6,6v30
					C234,163.3,231.3,166,228,166z"/>
			</g>
			<g>
				<path style="fill:#FFFFFF;" d="M233,161h-44c-3.3,0-6-2.7-6-6v-30c0-3.3,2.7-6,6-6h44c3.3,0,6,2.7,6,6v30
					C239,158.3,236.3,161,233,161z"/>
				<path d="M233,162h-44c-3.9,0-7-3.1-7-7v-30c0-3.9,3.1-7,7-7h44c3.9,0,7,3.1,7,7v30C240,158.9,236.9,162,233,162z M189,120
					c-2.8,0-5,2.2-5,5v30c0,2.8,2.2,5,5,5h44c2.8,0,5-2.2,5-5v-30c0-2.8-2.2-5-5-5H189z"/>
			</g>
			<g>
				<path style="fill:#D3D3D3;" d="M192.6,149.6h8c1,0,1.8-0.8,1.8-1.8v-8c0-1.6-1.9-2.3-3-1.2l-8,8
					C190.3,147.7,191.1,149.6,192.6,149.6z"/>
			</g>
			<g>
				<path style="fill:#D3D3D3;" d="M207.1,140.4l4.5,4.5c1.1,1.1,3,0.3,3-1.2v-9c0-1.6-1.9-2.3-3-1.2l-4.5,4.5
					C206.4,138.6,206.4,139.7,207.1,140.4z"/>
			</g>
			<g>
				<path d="M232.3,149.5l-15.9-15.9c-1-1-2.6-1-3.5,0l-6.3,6.3l-1.4-1.4l6.3-6.3c1.8-1.8,4.6-1.8,6.4,0l15.9,15.9L232.3,149.5z"/>
			</g>
			<g>
				<path d="M189.3,149.8c-0.3,0-0.5-0.1-0.7-0.3c-0.4-0.4-0.4-1,0-1.4l10.7-10.7c1.8-1.8,4.6-1.8,6.4,0l6.3,6.3
					c0.4,0.4,0.4,1,0,1.4s-1,0.4-1.4,0l-6.3-6.3c-1-1-2.6-1-3.5,0L190,149.5C189.8,149.7,189.5,149.8,189.3,149.8z"/>
			</g>
			<g>
				<path style="fill:#CCCCCC;" d="M202,124c-1.7,0-3,1.3-3,3s1.3,3,3,3s3-1.3,3-3S203.7,124,202,124L202,124z"/>
			</g>
		</g>
		<g id="top-right-dashed_1_">
			<g>
				<g>
					<g>
						<path style="fill:#848484;" d="M19.7,119.3c-0.1,0-0.3,0-0.4-0.1c-2-0.9-3.6-2.5-4.5-4.4c-0.2-0.5,0-1.1,0.5-1.3
							c0.5-0.2,1.1,0,1.3,0.5c0.7,1.5,1.9,2.8,3.5,3.5c0.5,0.2,0.7,0.8,0.5,1.3C20.4,119.1,20.1,119.3,19.7,119.3z M27,118.9
							c-0.3,0-0.7-0.2-0.9-0.5c-0.3-0.5-0.1-1.1,0.4-1.4c1.5-0.9,2.6-2.2,3.1-3.8c0.2-0.5,0.7-0.8,1.3-0.6c0.5,0.2,0.8,0.7,0.6,1.3
							c-0.7,2-2.1,3.8-4,4.9C27.4,118.9,27.2,118.9,27,118.9z M16.1,108c-0.2,0-0.3,0-0.5-0.1c-0.5-0.3-0.6-0.9-0.4-1.4
							c1.1-1.9,2.8-3.3,4.9-4c0.5-0.2,1.1,0.1,1.3,0.6c0.2,0.5-0.1,1.1-0.6,1.3c-1.6,0.5-2.9,1.7-3.8,3.1
							C16.7,107.8,16.4,108,16.1,108z"/>
					</g>
				</g>
			</g>
			<g>
				<path style="fill:#848484;" d="M31,99L31,99c-0.6,0-1,0.4-1,1v6c0,0.6,0.4,1,1,1h0c0.5,0,1-0.4,1-1v-6C32,99.4,31.6,99,31,99z"
					/>
			</g>
			<g>
				<path style="fill:#848484;" d="M27,103L27,103c0,0.6,0.4,1,1,1h6c0.5,0,1-0.4,1-1l0,0c0-0.6-0.5-1-1-1h-6
					C27.4,102,27,102.4,27,103z"/>
			</g>
			<g>
				<path style="fill:#848484;" d="M43,103L43,103c0,0.6,0.5,1,1,1h6c0.5,0,1-0.4,1-1l0,0c0-0.6-0.5-1-1-1h-6
					C43.5,102,43,102.4,43,103z"/>
			</g>
			<g>
				<path style="fill:#848484;" d="M59,103L59,103c0,0.6,0.5,1,1,1h6c0.6,0,1-0.4,1-1l0,0c0-0.6-0.4-1-1-1h-6
					C59.5,102,59,102.4,59,103z"/>
			</g>
			<g>
				<path style="fill:#848484;" d="M75,103L75,103c0,0.6,0.4,1,1,1h6c0.6,0,1-0.4,1-1l0,0c0-0.6-0.4-1-1-1h-6
					C75.4,102,75,102.4,75,103z"/>
			</g>
			<g>
				<path style="fill:#848484;" d="M30,88v3c0,0.6,0.5,1,1,1s1-0.4,1-1v-3H30z"/>
			</g>
		</g>
		<g id="bottom-right-dashed_1_">
			<g>
				<path style="fill:#848484;" d="M155.7,143L155.7,143c0,0.6,0.4,1,1,1h6c0.6,0,1-0.4,1-1l0,0c0-0.6-0.4-1-1-1h-6
					C156.1,142,155.7,142.4,155.7,143z"/>
			</g>
			<g>
				<path style="fill:#848484;" d="M139,143L139,143c0,0.6,0.4,1,1,1h6c0.6,0,1-0.4,1-1l0,0c0-0.6-0.4-1-1-1h-6
					C139.4,142,139,142.4,139,143z"/>
			</g>
			<g>
				<path style="fill:#848484;" d="M171.7,143L171.7,143c0,0.6,0.4,1,1,1h6c0.6,0,1-0.4,1-1l0,0c0-0.6-0.4-1-1-1h-6
					C172.1,142,171.7,142.4,171.7,143z"/>
			</g>
		</g>
	</g>
</g>
<g id="guides">
</g>
<g id="color">
	<rect x="52" y="-108.1" style="fill:#BDBDBD;" width="40" height="40"/>
	<rect x="4.1" y="-108.1" style="fill:#E0E0E0;" width="40" height="40"/>
	<rect x="-43.9" y="-108.1" style="fill:#FFFFFF;" width="40" height="40"/>
	<rect x="100" y="-108.1" style="fill:#9E9E9E;" width="40" height="40"/>
	<rect x="148.2" y="-108.1" style="fill:#212121;" width="40" height="40"/>
	<rect x="204" y="-108.1" style="fill:#1976D2;" width="40" height="40"/>
	<rect x="252" y="-108.1" style="fill:#1E88E5;" width="40" height="40"/>
	<rect x="204" y="-156" style="fill:#C2185B;" width="40" height="40"/>
	<rect x="252" y="-156" style="fill:#E91E63;" width="40" height="40"/>
	<rect x="148.2" y="-155.7" style="opacity:0.2;" width="40" height="40"/>
</g>
</svg>
