<?xml version="1.0" encoding="utf-8"?>
<!-- Generator: Adobe Illustrator 19.0.1, SVG Export Plug-In . SVG Version: 6.00 Build 0)  -->
<svg version="1.1" xmlns="http://www.w3.org/2000/svg" xmlns:xlink="http://www.w3.org/1999/xlink" x="0px" y="0px"
	 viewBox="0 0 240 200" style="enable-background:new 0 0 240 200;" xml:space="preserve">
<g id="base">
	<rect id="bounds_2_" style="fill:none;" width="240" height="200"/>
</g>
<g id="Layer_4">
	
		<line id="path.3" style="fill:none;stroke:#000000;stroke-width:4;stroke-linecap:round;stroke-miterlimit:10;" x1="170" y1="53" x2="170" y2="147"/>
	
		<line id="path.2" style="fill:none;stroke:#000000;stroke-width:4;stroke-linecap:round;stroke-miterlimit:10;" x1="188" y1="53" x2="188" y2="147"/>
	
		<line id="path.1" style="fill:none;stroke:#000000;stroke-width:4;stroke-linecap:round;stroke-miterlimit:10;" x1="152" y1="53" x2="152" y2="147"/>
</g>
<g id="guides">
</g>
<g id="color">
	<rect x="52" y="-108.1" style="fill:#BDBDBD;" width="40" height="40"/>
	<rect x="4.1" y="-108.1" style="fill:#E0E0E0;" width="40" height="40"/>
	<rect x="-43.9" y="-108.1" style="fill:#FFFFFF;" width="40" height="40"/>
	<rect x="100" y="-108.1" style="fill:#9E9E9E;" width="40" height="40"/>
	<rect x="148.2" y="-108.1" style="fill:#212121;" width="40" height="40"/>
	<rect x="204" y="-108.1" style="fill:#1976D2;" width="40" height="40"/>
	<rect x="252" y="-108.1" style="fill:#1E88E5;" width="40" height="40"/>
	<rect x="204" y="-156" style="fill:#C2185B;" width="40" height="40"/>
	<rect x="252" y="-156" style="fill:#E91E63;" width="40" height="40"/>
	<rect x="148.2" y="-155.7" style="opacity:0.2;" width="40" height="40"/>
</g>
<g id="Layer_5">
	<g id="photo-2">
		<g id="image">
			<g>
				<path style="fill:#FFFFFF;" d="M65,76c-1.7,0-3-1.3-3-3V57c0-1.7,1.3-3,3-3h22c1.7,0,3,1.3,3,3v16c0,1.7-1.3,3-3,3H65z"/>
				<path d="M87,55c1.1,0,2,0.9,2,2v16c0,1.1-0.9,2-2,2H65c-1.1,0-2-0.9-2-2V57c0-1.1,0.9-2,2-2H87 M87,53H65c-2.2,0-4,1.8-4,4v16
					c0,2.2,1.8,4,4,4h22c2.2,0,4-1.8,4-4V57C91,54.8,89.2,53,87,53L87,53z"/>
			</g>
			<path d="M86.4,69.6l-6.9-6.9c-0.8-0.8-2.1-0.8-2.8,0L74,65.3l-0.6-0.6c-0.8-0.8-2.1-0.8-2.8,0l-4.9,4.9c-0.2,0.2-0.2,0.5,0,0.7
				c0.1,0.1,0.2,0.1,0.4,0.1s0.3,0,0.4-0.1l4.9-4.9c0.4-0.4,1-0.4,1.4,0l2.9,2.9c0.2,0.2,0.5,0.2,0.7,0s0.2-0.5,0-0.7L74.7,66
				l2.6-2.6c0.4-0.4,1-0.4,1.4,0l6.9,6.9c0.1,0.1,0.2,0.1,0.4,0.1s0.3,0,0.4-0.1C86.5,70.2,86.5,69.8,86.4,69.6z"/>
			<circle style="fill:#B3B3B3;" cx="72" cy="59" r="2"/>
		</g>
		<path style="fill:#999999;" d="M83,80"/>
		
			<line style="fill:none;stroke:#000000;stroke-width:2;stroke-linecap:round;stroke-miterlimit:10;" x1="82" y1="80" x2="82" y2="96"/>
		
			<line style="fill:none;stroke:#000000;stroke-width:2;stroke-linecap:round;stroke-miterlimit:10;" x1="76" y1="80" x2="76" y2="102"/>
		
			<line style="fill:none;stroke:#000000;stroke-width:2;stroke-linecap:round;stroke-miterlimit:10;" x1="70" y1="80" x2="70" y2="96"/>
	</g>
</g>
</svg>
