<svg version="1.1" xmlns="http://www.w3.org/2000/svg" xmlns:xlink="http://www.w3.org/1999/xlink" x="0px" y="0px"
	 viewBox="0 0 240 200" style="enable-background:new 0 0 240 200;" xml:space="preserve">
<g id="share">
	<rect id="bounds_1_" style="fill:none;" width="240" height="200"/>
	<g id="ring_2_">
		<path style="fill:#E8E8E8;" d="M120,183c-43.6,0-79-35.4-79-79s35.4-79,79-79s79,35.4,79,79S163.6,183,120,183z"/>
		<g>
			<path style="fill:#212121;" d="M120,26c43,0,78,35,78,78s-35,78-78,78s-78-35-78-78S77,26,120,26 M120,24c-44.2,0-80,35.8-80,80
				s35.8,80,80,80s80-35.8,80-80S164.2,24,120,24L120,24z"/>
		</g>
	</g>
	<path id="shadow-top_1_" style="opacity:0.2;" d="M120,32c39.7,0,72,32.3,72,72h8c0-44.2-35.8-80-80-80s-80,35.8-80,80h8
		C48,64.3,80.3,32,120,32z"/>
	<g>
		<defs>
			<path id="SVGID_1_" d="M56,16v132.6c14.1,20.2,37.5,33.4,64,33.4c26.5,0,49.9-13.2,64-33.4V16H56z"/>
		</defs>
		<clipPath id="SVGID_2_">
			<use xlink:href="#SVGID_1_"  style="overflow:visible;"/>
		</clipPath>
		<g id="document" style="clip-path:url(#SVGID_2_);">
			<path id="background" style="fill:#FFFFFF;" d="M179,17H61c-2.2,0-4,1.8-4,4v170h126V21C183,18.8,181.2,17,179,17z"/>
			<rect id="banner" x="58" y="30" style="fill:#E6E6E6;" width="124" height="32"/>
			<path id="message-3_1_" style="fill:#1E88E5;stroke:#212121;stroke-width:2;stroke-miterlimit:10;" d="M140,161H78l3,3v4
				c0,3.8,3.2,7,7,7h52c3.8,0,7-3.2,7-7C147,164.1,143.8,161,140,161z"/>
			<path id="message-2_1_" style="fill:#E91E63;stroke:#212121;stroke-width:2;stroke-miterlimit:10;" d="M100,141h62l-3,3v4
				c0,3.8-3.2,7-7,7h-52c-3.8,0-7-3.2-7-7C93,144.1,96.2,141,100,141z"/>
			<path id="message-1_1_" style="fill:#1E88E5;stroke:#212121;stroke-width:2;stroke-miterlimit:10;" d="M140,121H78l3,3v4
				c0,3.8,3.2,7,7,7h52c3.8,0,7-3.2,7-7C147,124.1,143.8,121,140,121z"/>
			<path id="image-shadow_1_" style="opacity:0.2;" d="M147,116H85c-7.2,0-13-5.8-13-13V57c0-7.2,5.8-13,13-13h62
				c7.2,0,13,5.8,13,13v46C160,110.2,154.2,116,147,116z"/>
			<g id="image_3_">
				<path id="background_4_" style="fill:#FFFFFF;stroke:#212121;stroke-width:2;stroke-miterlimit:10;" d="M151,111H89
					c-6.6,0-12-5.4-12-12V53c0-6.6,5.4-12,12-12h62c6.6,0,12,5.4,12,12v46C163,105.6,157.6,111,151,111z"/>
				<path id="hillside-2" style="fill:#E0E0E0;" d="M109,71.9V82c0,2.2-1.8,4-4,4H90c0,0,10.1-10.1,15.6-15.5
					C106.9,69.2,109,70.1,109,71.9z"/>
				<path id="hillside-1" style="fill:#E0E0E0;" d="M121.6,62.6c-5.5,5.5-8.5,8.5-8.5,8.5l8.6,7.9c1.3,1.2,3.4,0.3,3.4-1.5l0-13.4
					C125,62.2,122.8,61.3,121.6,62.6z"/>
				<path id="mountain" style="fill:#212121;" d="M150.7,84.3l-22.2-22.2c-1.9-1.9-5.1-1.9-7.1,0l-8,8l-1-1c-1.9-1.9-5.1-1.9-7.1,0
					L90.3,84.3c-0.4,0.4-0.4,1,0,1.4c0.2,0.2,0.5,0.3,0.7,0.3s0.5-0.1,0.7-0.3l15.2-15.2c1.1-1.1,3.1-1.1,4.2,0l7.2,7.2
					c0.4,0.4,1,0.4,1.4,0s0.4-1,0-1.4l-4.8-4.8l8-8c1.2-1.2,3.1-1.2,4.2,0l22.2,22.2c0.2,0.2,0.5,0.3,0.7,0.3s0.5-0.1,0.7-0.3
					C151.1,85.3,151.1,84.7,150.7,84.3z"/>
				<path id="line" style="fill:#BDBDBD;" d="M85,95h70c0.6,0,1-0.4,1-1l0,0c0-0.6-0.4-1-1-1H85c-0.6,0-1,0.4-1,1l0,0
					C84,94.6,84.4,95,85,95z"/>
				<path id="heart" style="fill:#1E88E5;" d="M154.1,99c-0.8,0-1.4,0.3-1.9,0.9c-0.5-0.5-1.1-0.9-1.9-0.9c0,0,0,0,0,0
					c-1.8,0-2.7,2.3-1.5,3.7l2.5,2.9c0.5,0.6,1.4,0.6,1.9,0l2.5-2.9C156.8,101.3,155.9,99,154.1,99C154.1,99,154.1,99,154.1,99z"/>
				<path id="sun" style="fill:#BDBDBD;" d="M109,50c-2.2,0-4,1.8-4,4s1.8,4,4,4s4-1.8,4-4S111.2,50,109,50L109,50z"/>
			</g>
			<g id="browser_1_">
				<circle style="fill:#9E9E9E;" cx="64" cy="23" r="2"/>
				<circle style="fill:#9E9E9E;" cx="70" cy="23" r="2"/>
				<circle style="fill:#9E9E9E;" cx="76" cy="23" r="2"/>
				<path id="browser" style="fill:#212121;" d="M179,16H61c-2.8,0-5,2.2-5,5v171h128V21C184,18.2,181.8,16,179,16z M182,190H58V30
					h124V190z M182,28H58v-7c0-1.7,1.3-3,3-3h118c1.7,0,3,1.3,3,3V28z"/>
			</g>
		</g>
	</g>
	<path id="shadow-bottom_1_" style="opacity:0.2;" d="M120,176c-39.7,0-72-32.3-72-72h-8c0,44.2,35.8,80,80,80s80-35.8,80-80h-8
		C192,143.7,159.7,176,120,176z"/>
	<g id="head-male_2_">
		<circle id="shadow_1_" style="opacity:0.2;" cx="36" cy="108" r="32"/>
		<path id="background_3_" style="fill:#FFFFFF;stroke:#212121;stroke-width:2;stroke-miterlimit:10;" d="M40,135
			c-17.1,0-31-13.9-31-31s13.9-31,31-31s31,13.9,31,31S57.1,135,40,135z"/>
		<g id="head_1_">
			<g id="hair">
				<path style="fill:#1E88E5;stroke:#212121;stroke-width:2;stroke-miterlimit:10;" d="M21,105h34V95c0,0,4,0,4-4s0-8,0-8H33
					c0,0-4,0-4,4h-4c0,0-4,0-4,4C21,91,21.1,104,21,105z"/>
				<path style="fill:#1976D2;" d="M27,90h4c0.6,0,1,0.4,1,1l0,0c0,0.6-0.4,1-1,1h-4c-0.6,0-1-0.4-1-1l0,0C26,90.4,26.4,90,27,90z"
					/>
			</g>
			<circle id="ear-right_1_" style="fill:#FFFFFF;stroke:#212121;stroke-width:2;stroke-miterlimit:10;" cx="56" cy="106" r="3"/>
			<circle id="ear-left_1_" style="fill:#FFFFFF;stroke:#212121;stroke-width:2;stroke-miterlimit:10;" cx="24" cy="106" r="3"/>
			<path id="face" style="fill:#FFFFFF;stroke:#212121;stroke-width:2;stroke-miterlimit:10;" d="M28,95c-1.7,0-3,1.3-3,3l0,12
				c0,8.3,6.7,15,15,15s15-6.7,15-15V95H28z"/>
			<g id="eyes">
				<circle style="fill:#212121;" cx="36" cy="106" r="2"/>
				<circle style="fill:#212121;" cx="48" cy="106" r="2"/>
			</g>
		</g>
	</g>
	<g id="head-female_2_">
		<circle id="shadow" style="opacity:0.2;" cx="196" cy="108" r="32"/>
		<path id="background_1_" style="fill:#FFFFFF;stroke:#212121;stroke-width:2;stroke-miterlimit:10;" d="M200,135
			c-17.1,0-31-13.9-31-31s13.9-31,31-31s31,13.9,31,31S217.1,135,200,135z"/>
		<g id="head">
			<g id="face_1_">
				<circle id="ear-right_2_" style="fill:#FFFFFF;stroke:#212121;stroke-width:2;stroke-miterlimit:10;" cx="216" cy="106" r="3"/>
				<circle id="ear-left_2_" style="fill:#FFFFFF;stroke:#212121;stroke-width:2;stroke-miterlimit:10;" cx="184" cy="106" r="3"/>
				<path style="fill:#FFFFFF;stroke:#212121;stroke-width:2;stroke-miterlimit:10;" d="M185,96l0,14c0,8.3,6.7,15,15,15
					c8.3,0,15-6.7,15-15V96H185z"/>
				<g id="eyes_1_">
					<circle style="fill:#212121;" cx="192" cy="106" r="2"/>
					<circle style="fill:#212121;" cx="204" cy="106" r="2"/>
				</g>
			</g>
			<g id="hair_1_">
				<path style="fill:#C2185B;" d="M207,91c-3.9,0-7-3.1-7-7s3.1-7,7-7s7,3.1,7,7S210.9,91,207,91z"/>
				<path style="fill:#212121;" d="M207,78c3.3,0,6,2.7,6,6s-2.7,6-6,6s-6-2.7-6-6S203.7,78,207,78 M207,76c-4.4,0-8,3.6-8,8
					s3.6,8,8,8s8-3.6,8-8S211.4,76,207,76L207,76z"/>
				<path style="fill:#E91E63;" d="M211.4,100l-3.4-3.4l-0.7,0.7c-1.7,1.7-4.1,2.7-6.5,2.7H185v-4c0-8.3,6.7-15,15-15
					c0.6,0,1.1,0,1.7,0.1c7.6,0.8,13.3,7.4,13.3,15.3v3.6H211.4z"/>
				<path style="fill:#C2185B;" d="M189,97c-0.6,0-1-0.4-1-1c0-6.6,5.4-12,12-12c0.6,0,1,0.4,1,1s-0.4,1-1,1c-5.5,0-10,4.5-10,10
					C190,96.6,189.6,97,189,97z"/>
				<path style="fill:#212121;" d="M200,82L200,82c0.5,0,1.1,0,1.6,0.1c7.1,0.8,12.4,6.9,12.4,14.3V99h-2.2l-2.4-2.4l-1.4-1.4
					l-1.4,1.4c-1.6,1.6-3.6,2.4-5.8,2.4H186v-3C186,88.3,192.3,82,200,82 M200,80c-8.8,0-16,7.2-16,16v5h16.8c2.7,0,5.3-1.1,7.2-3
					l3,3h5v-4.6c0-8.2-6-15.4-14.2-16.3C201.2,80,200.6,80,200,80L200,80z"/>
			</g>
		</g>
	</g>
</g>
<g id="Layer_3">
</g>
<g id="guides">
</g>
</svg>
